# Blender v2.79 (sub 0) OBJ File: ''
# www.blender.org
mtllib blastfurnace.mtl
o Blast
v -4.000000 0.000000 -4.000000
v -4.000000 0.000000 -6.000000
v -4.000000 1.000000 -6.000000
v -4.000000 1.000000 -4.000000
v -6.000000 0.000000 -6.000000
v -6.000000 1.000000 -6.000000
v -6.000000 0.000000 -4.000000
v -6.000000 1.000000 -4.000000
v 4.000000 0.000000 4.000000
v 4.000000 0.000000 6.000000
v 4.000000 1.000000 6.000000
v 4.000000 1.000000 4.000000
v 6.000000 0.000000 6.000000
v 6.000000 1.000000 6.000000
v 6.000000 0.000000 4.000000
v 6.000000 1.000000 4.000000
v -4.000000 0.000000 4.000000
v -6.000000 0.000000 4.000000
v -6.000000 1.000000 4.000000
v -4.000000 1.000000 4.000000
v -6.000000 0.000000 6.000000
v -6.000000 1.000000 6.000000
v -4.000000 0.000000 6.000000
v -4.000000 1.000000 6.000000
v 4.000000 0.000000 -4.000000
v 6.000000 0.000000 -4.000000
v 6.000000 1.000000 -4.000000
v 4.000000 1.000000 -4.000000
v 6.000000 0.000000 -6.000000
v 6.000000 1.000000 -6.000000
v 4.000000 0.000000 -6.000000
v 4.000000 1.000000 -6.000000
v 4.594407 0.000000 5.684943
v 4.571646 -0.000000 4.672330
v 3.790233 6.948880 4.799230
v 3.790233 6.752202 3.811686
v 4.780182 6.926777 3.789434
v 4.780182 7.123454 4.776978
v 5.604559 -0.000000 5.684943
v 5.581799 0.000000 4.672330
v -5.672637 0.000000 4.597021
v -4.660024 -0.000000 4.574259
v -4.786924 6.948880 3.792846
v -3.799380 6.752202 3.792846
v -3.777128 6.926777 4.782795
v -4.764672 7.123454 4.782795
v -5.672637 -0.000000 5.607173
v -4.660024 0.000000 5.584412
v 5.606256 -0.000000 -5.688281
v 5.583496 -0.000000 -4.675668
v 4.781879 7.123454 -4.780316
v 4.781879 6.926777 -3.792772
v 3.791930 6.752202 -3.815023
v 3.791930 6.948880 -4.802567
v 4.596104 0.000000 -5.688281
v 4.573343 0.000000 -4.675668
v -5.673170 -0.000000 -5.604940
v -4.660557 0.000000 -5.582179
v -4.765205 7.123454 -4.780562
v -3.777661 6.926777 -4.780562
v -3.799913 6.752202 -3.790613
v -4.787457 6.948880 -3.790613
v -5.673170 0.000000 -4.594787
v -4.660557 0.000000 -4.572026
v -2.000000 1.000000 2.000000
v -2.000000 1.000000 -2.000000
v -2.000000 5.000000 -2.000000
v -2.000000 5.000000 2.000000
v -3.000000 2.000000 1.000000
v -3.000000 4.000000 1.000000
v -3.000000 4.000000 -1.000000
v -3.000000 2.000000 -1.000000
v -1.500000 1.000000 3.000000
v 1.500000 1.000000 3.000000
v 1.500000 1.000000 5.000000
v -1.500000 1.000000 5.000000
v 1.500000 4.000000 3.000000
v 1.500000 4.000000 5.000000
v -1.500000 4.000000 3.000000
v -1.500000 4.000000 5.000000
v 4.949748 7.000000 -4.949748
v 4.000000 3.000000 -4.000000
v -4.949748 7.000000 -4.949748
v -4.000000 3.000000 -4.000000
v -4.949748 7.000000 4.949748
v -4.000000 3.000000 4.000000
v 4.949748 7.000000 4.949748
v 4.000000 3.000000 4.000000
v -1.500000 1.000000 -5.000000
v 1.500000 1.000000 -5.000000
v 1.500000 1.000000 -3.000000
v -1.500000 1.000000 -3.000000
v 1.500000 4.000000 -5.000000
v 1.500000 4.000000 -3.000000
v -1.500000 4.000000 -5.000000
v -1.500000 4.000000 -3.000000
v -5.000000 0.000000 5.000000
v 5.000000 0.000000 5.000000
v 5.000000 1.000000 5.000000
v -5.000000 1.000000 5.000000
v 5.000000 0.000000 -5.000000
v 5.000000 1.000000 -5.000000
v -5.000000 0.000000 -5.000000
v -5.000000 1.000000 -5.000000
v -3.262742 19.000000 -3.262742
v 3.262742 19.000000 -3.262742
v 5.000000 7.000000 -5.000000
v -5.000000 7.000000 -5.000000
v -3.262742 19.000000 -2.485825
v -3.262742 19.000000 3.262742
v -5.000000 7.000000 5.000000
v -2.485825 19.000000 3.262742
v 3.262742 19.000000 3.262742
v 5.000000 7.000000 5.000000
v 3.262742 19.000000 2.431701
v 3.262742 19.000000 -2.485825
v -2.485825 19.000000 -2.485825
v -2.485825 19.000000 2.431701
v 2.431701 19.000000 -2.485825
v 2.431701 19.000000 2.431701
vn 0.0000 0.0000 1.0000
vn 0.0000 -1.0000 0.0000
vn 0.0000 0.0000 -1.0000
vn 1.0000 0.0000 0.0000
vn -1.0000 0.0000 0.0000
vn -0.9934 -0.1121 0.0223
vn 0.0000 -0.2310 -0.9730
vn -0.1746 0.9657 -0.1923
vn 0.9920 -0.1264 0.0000
vn 0.0000 -0.2310 0.9730
vn 0.0000 0.1433 -0.9897
vn -0.0223 -0.1121 -0.9934
vn 0.0000 1.0000 0.0000
vn 0.1923 0.9657 -0.1746
vn 0.9730 -0.2310 0.0000
vn 0.0223 0.1121 0.9934
vn 0.0000 0.1264 0.9920
vn -0.1746 0.9657 0.1923
vn -0.9934 -0.1121 -0.0223
vn 0.0000 0.1264 -0.9920
vn -0.0000 -0.1264 0.9920
vn 0.1923 0.9657 0.1746
vn 0.9934 0.1121 0.0223
vn -0.9897 0.1433 0.0000
vn -0.9920 0.1264 -0.0000
vn 0.0223 0.1121 -0.9934
vn -0.0000 -0.1264 -0.9920
vn -0.9730 -0.2310 0.0000
vn 0.9934 0.1121 -0.0223
vn 0.0000 0.1433 0.9897
vn 0.9897 0.1433 0.0000
vn -0.0223 -0.1121 0.9934
usemtl None
s off
f 20//1 12//1 88//1 86//1
f 75//2 76//2 73//2 74//2
f 79//3 77//3 74//3 73//3
f 94//4 91//4 90//4 93//4
f 8//5 6//5 5//5 7//5
f 36//6 34//6 33//6 35//6
f 84//7 83//7 81//7 82//7
f 37//8 36//8 35//8 38//8
f 27//1 28//1 25//1 26//1
f 103//2 101//2 98//2 97//2
f 60//9 61//9 64//9 58//9
f 86//10 88//10 87//10 85//10
f 108//11 105//11 106//11 107//11
f 42//12 41//12 43//12 44//12
f 75//1 78//1 80//1 76//1
f 3//13 6//13 8//13 4//13
f 40//2 39//2 33//2 34//2
f 44//14 43//14 46//14 45//14
f 27//13 30//13 32//13 28//13
f 92//5 96//5 95//5 89//5
f 88//15 82//15 81//15 87//15
f 11//5 12//5 9//5 10//5
f 46//16 47//16 48//16 45//16
f 12//4 28//4 82//4 88//4
f 42//9 44//9 45//9 48//9
f 100//5 104//5 103//5 97//5
f 33//17 39//17 38//17 35//17
f 88//13 82//13 84//13 86//13
f 51//18 54//18 53//18 52//18
f 28//3 4//3 84//3 82//3
f 84//2 82//2 88//2 86//2
f 56//19 53//19 54//19 55//19
f 104//3 102//3 101//3 103//3
f 20//4 24//4 23//4 17//4
f 51//20 49//20 55//20 54//20
f 12//3 16//3 15//3 9//3
f 50//21 52//21 53//21 56//21
f 48//2 47//2 41//2 42//2
f 49//2 50//2 56//2 55//2
f 76//5 80//5 79//5 73//5
f 96//13 94//13 93//13 95//13
f 61//22 60//22 59//22 62//22
f 21//2 18//2 17//2 23//2
f 102//4 99//4 98//4 101//4
f 4//1 8//1 7//1 1//1
f 3//4 4//4 1//4 2//4
f 51//23 52//23 50//23 49//23
f 117//13 109//13 110//13 112//13
f 14//1 11//1 10//1 13//1
f 83//13 85//13 87//13 81//13
f 12//13 11//13 14//13 16//13
f 95//3 93//3 90//3 89//3
f 109//24 105//24 108//24 111//24
f 13//2 10//2 9//2 15//2
f 20//13 19//13 22//13 24//13
f 22//5 19//5 18//5 21//5
f 57//25 63//25 62//25 59//25
f 67//4 68//4 65//4 66//4
f 72//5 69//5 70//5 71//5
f 57//26 59//26 60//26 58//26
f 91//2 92//2 89//2 90//2
f 37//27 40//27 34//27 36//27
f 19//3 20//3 17//3 18//3
f 84//28 86//28 85//28 83//28
f 99//1 100//1 97//1 98//1
f 4//2 28//2 12//2 20//2
f 31//2 29//2 26//2 25//2
f 7//2 5//2 2//2 1//2
f 41//25 47//25 46//25 43//25
f 38//29 39//29 40//29 37//29
f 111//30 114//30 113//30 112//30
f 30//4 27//4 26//4 29//4
f 78//4 75//4 74//4 77//4
f 108//2 107//2 114//2 111//2
f 24//1 22//1 21//1 23//1
f 118//13 112//13 113//13 115//13
f 116//13 119//13 120//13 115//13
f 16//4 14//4 13//4 15//4
f 107//31 106//31 116//31 115//31
f 28//5 32//5 31//5 25//5
f 64//2 63//2 57//2 58//2
f 6//3 3//3 2//3 5//3
f 62//32 63//32 64//32 61//32
f 80//13 78//13 77//13 79//13
f 32//3 30//3 29//3 31//3
f 4//5 20//5 86//5 84//5
f 109//13 116//13 106//13 105//13
f 99//13 102//13 104//13 100//13
f 91//1 94//1 96//1 92//1
f 119//13 117//13 118//13 120//13